<?xml version="1.0" standalone="yes"?>
<svg version="1.1" xmlns="http://www.w3.org/2000/svg" xmlns:xlink="http://www.w3.org/1999/xlink" xmlns:ev="http://www.w3.org/2001/xml-events" width="465" height="465">
<path style="fill:#000000; stroke:none;" d="M15 15L15 120L120 120L120 15L15 15M165 15L165 30L150 30L150 45L135 45L135 60L150 60L150 90L165 90L165 120L180 120L180 135L195 135L195 150L180 150L180 165L165 165L165 150L150 150L150 105L135 105L135 135L75 135L75 150L60 150L60 135L15 135L15 180L30 180L30 165L45 165L45 195L15 195L15 225L30 225L30 255L15 255L15 270L30 270L30 285L15 285L15 300L30 300L30 315L15 315L15 330L30 330L30 315L45 315L45 300L30 300L30 285L45 285L45 270L60 270L60 330L75 330L75 300L90 300L90 315L105 315L105 330L135 330L135 390L180 390L180 405L135 405L135 450L150 450L150 435L165 435L165 450L195 450L195 435L225 435L225 450L285 450L285 435L300 435L300 450L360 450L360 435L330 435L330 390L375 390L375 405L360 405L360 420L390 420L390 405L405 405L405 420L420 420L420 450L450 450L450 435L435 435L435 420L450 420L450 375L420 375L420 405L405 405L405 375L390 375L390 360L405 360L405 345L420 345L420 360L450 360L450 330L405 330L405 345L390 345L390 315L405 315L405 285L420 285L420 315L435 315L435 300L450 300L450 255L435 255L435 240L450 240L450 195L435 195L435 180L450 180L450 150L435 150L435 165L405 165L405 150L420 150L420 135L405 135L405 150L390 150L390 165L360 165L360 135L330 135L330 150L315 150L315 165L330 165L330 180L345 180L345 165L360 165L360 195L315 195L315 180L285 180L285 165L270 165L270 150L285 150L285 120L300 120L300 135L315 135L315 120L330 120L330 105L315 105L315 75L330 75L330 45L315 45L315 15L300 15L300 45L315 45L315 60L285 60L285 75L300 75L300 105L285 105L285 90L255 90L255 75L225 75L225 60L195 60L195 45L180 45L180 60L195 60L195 90L165 90L165 60L150 60L150 45L165 45L165 30L180 30L180 15L165 15M225 15L225 30L210 30L210 45L270 45L270 30L255 30L255 15L225 15M345 15L345 120L450 120L450 15L345 15M105 30L105 105L30 105L30 30L105 30M435 30L435 105L360 105L360 30L435 30M45 45L45 90L90 90L90 45L45 45M375 45L375 90L420 90L420 45L375 45M225 90L225 120L240 120L240 105L255 105L255 135L240 135L240 150L255 150L255 180L270 180L270 195L255 195L255 180L240 180L240 165L225 165L225 180L210 180L210 165L225 165L225 150L210 150L210 135L195 135L195 120L180 120L180 105L195 105L195 120L210 120L210 90L225 90M285 105L285 120L270 120L270 105L285 105M315 105L315 120L300 120L300 105L315 105M150 150L150 165L165 165L165 180L150 180L150 195L165 195L165 225L195 225L195 195L180 195L180 180L195 180L195 195L225 195L225 225L240 225L240 210L255 210L255 240L270 240L270 225L300 225L300 210L285 210L285 195L315 195L315 255L285 255L285 240L270 240L270 270L345 270L345 285L360 285L360 270L375 270L375 255L330 255L330 225L360 225L360 210L375 210L375 195L390 195L390 225L420 225L420 210L405 210L405 180L390 180L390 165L405 165L405 180L420 180L420 210L435 210L435 225L420 225L420 270L435 270L435 285L420 285L420 270L405 270L405 285L390 285L390 315L375 315L375 300L360 300L360 315L345 315L345 300L330 300L330 315L315 315L315 345L285 345L285 285L270 285L270 330L255 330L255 345L270 345L270 360L255 360L255 375L240 375L240 390L285 390L285 375L315 375L315 390L300 390L300 405L315 405L315 435L300 435L300 420L285 420L285 405L270 405L270 420L240 420L240 405L225 405L225 420L210 420L210 405L225 405L225 390L210 390L210 375L195 375L195 390L180 390L180 375L150 375L150 345L165 345L165 360L180 360L180 345L195 345L195 315L180 315L180 330L165 330L165 315L150 315L150 300L135 300L135 315L105 315L105 300L120 300L120 285L105 285L105 270L120 270L120 255L105 255L105 240L75 240L75 255L90 255L90 285L75 285L75 270L60 270L60 240L45 240L45 225L60 225L60 210L75 210L75 195L105 195L105 180L135 180L135 165L105 165L105 150L150 150M75 165L75 180L60 180L60 165L75 165M105 195L105 210L120 210L120 225L105 225L105 240L120 240L120 225L150 225L150 195L135 195L135 210L120 210L120 195L105 195M75 210L75 225L90 225L90 210L75 210M210 225L210 240L225 240L225 225L210 225M375 225L375 240L390 240L390 255L405 255L405 240L390 240L390 225L375 225M135 240L135 270L120 270L120 285L135 285L135 270L150 270L150 240L135 240M165 240L165 270L180 270L180 285L150 285L150 300L165 300L165 315L180 315L180 300L195 300L195 315L225 315L225 345L210 345L210 360L225 360L225 345L240 345L240 315L255 315L255 300L240 300L240 285L225 285L225 270L210 270L210 255L195 255L195 240L165 240M195 255L195 270L180 270L180 255L195 255M255 270L255 285L270 285L270 270L255 270M225 285L225 300L210 300L210 285L225 285M375 330L375 375L330 375L330 330L375 330M15 345L15 450L120 450L120 345L15 345M345 345L345 360L360 360L360 345L345 345M105 360L105 435L30 435L30 360L105 360M180 360L180 375L195 375L195 360L180 360M45 375L45 420L90 420L90 375L45 375M435 405L435 420L420 420L420 405L435 405M195 420L195 435L180 435L180 420L195 420M375 435L375 450L390 450L390 435L375 435z"/>
</svg>
